<svg width="960" height="100" viewBox="0 0 960 100" fill="none" xmlns="http://www.w3.org/2000/svg">
    <g clip-path="url(#clip0_306_2)">
        <path d="M960 100H0V0H960V100Z" fill="#FAFAFA"/>
        <path d="M0 55L80 53L160 81L240 67L320 71L400 59L480 79L560 67L640 75L720 81L800 69L880 53L960 84V-1H880H800H720H640H560H480H400H320H240H160H80H0V55Z" fill="#BCE784"/>
        <path d="M0 63L80 55L160 56L240 47L320 45L400 65L480 51L560 71L640 64L720 51L800 62L880 69L960 61V-1H880H800H720H640H560H480H400H320H240H160H80H0V63Z" fill="#5AD7AB"/>
        <path d="M0 41L80 38L160 36H240L320 34L400 41L480 56L560 42L640 45L720 55L800 45L880 35L960 59V-1H880H800H720H640H560H480H400H320H240H160H80H0V41Z" fill="#00BDCA"/>
        <path d="M0 46L80 48L160 38L240 47L320 33L400 46L480 49L560 39L640 38L720 27L800 47L880 48L960 39V-1H880H800H720H640H560H480H400H320H240H160H80H0V46Z" fill="#009ED5"/>
        <path d="M0 22L80 34L160 35L240 27L320 34H400L480 29L560 34L640 18L720 33L800 30L880 21L960 22V-1H880H800H720H640H560H480H400H320H240H160H80H0V22Z" fill="#0077DB"/>
        <path d="M0 7L80 23L160 15L240 18L320 22L400 15H480L560 13L640 10L720 21L800 8L880 11L960 14V-1H880H800H720H640H560H480H400H320H240H160H80H0V7Z" fill="#1C37A3"/>
    </g>
    <defs>
        <clipPath id="clip0_306_2">
            <rect width="960" height="100" fill="white" transform="matrix(1 0 0 -1 0 100)"/>
        </clipPath>
    </defs>
</svg>