<svg width="960" height="100" viewBox="0 0 960 100" style="background-color:rgb(250, 250, 250)" xmlns="http://www.w3.org/2000/svg">
    <path fill-rule="evenodd" clip-rule="evenodd" d="M0 10.6337L20 6.91008C40 3.18649 80 -4.26071 120 3.18649C160 10.6337 200 32.9753 240 38.5607C280 44.146 320 32.9753 360 31.1135C400 29.2517 440 36.6989 480 44.146C520 51.5932 560 59.0404 600 57.1786C640 55.3168 680 44.146 720 38.5607C760 32.9753 800 32.9753 840 36.6989C880 40.4225 920 47.8696 940 51.5932L960 55.3168V100H940C920 100 880 100 840 100C800 100 760 100 720 100C680 100 640 100 600 100C560 100 520 100 480 100C440 100 400 100 360 100C320 100 280 100 240 100C200 100 160 100 120 100C80 100 40 100 20 100H0V10.6337Z" fill="#1C37A3"/>
</svg>