<svg width="960" height="100" viewBox="0 0 960 100" fill="none" xmlns="http://www.w3.org/2000/svg">
    <g clip-path="url(#clip0_0_1)">
        <path d="M960 0H0V100H960V0Z" fill="#fafafa"/>
        <path d="M0 45L80 47L160 19L240 33L320 29L400 41L480 21L560 33L640 25L720 19L800 31L880 47L960 16V101H880H800H720H640H560H480H400H320H240H160H80H0V45Z" fill="#BCE784"/>
        <path d="M0 37L80 45L160 44L240 53L320 55L400 35L480 49L560 29L640 36L720 49L800 38L880 31L960 39V101H880H800H720H640H560H480H400H320H240H160H80H0V37Z" fill="#5AD7AB"/>
        <path d="M0 59L80 62L160 64H240L320 66L400 59L480 44L560 58L640 55L720 45L800 55L880 65L960 41V101H880H800H720H640H560H480H400H320H240H160H80H0V59Z" fill="#00BDCA"/>
        <path d="M0 54L80 52L160 62L240 53L320 67L400 54L480 51L560 61L640 62L720 73L800 53L880 52L960 61V101H880H800H720H640H560H480H400H320H240H160H80H0V54Z" fill="#009ED5"/>
        <path d="M0 78L80 66L160 65L240 73L320 66H400L480 71L560 66L640 82L720 67L800 70L880 79L960 78V101H880H800H720H640H560H480H400H320H240H160H80H0V78Z" fill="#0077DB"/>
        <path d="M0 93L80 77L160 85L240 82L320 78L400 85H480L560 87L640 90L720 79L800 92L880 89L960 86V101H880H800H720H640H560H480H400H320H240H160H80H0V93Z" fill="#1C37A3"/>
    </g>
    <defs>
        <clipPath id="clip0_0_1">
            <rect width="960" height="100" fill="#fafafa"/>
        </clipPath>
    </defs>
</svg>