<svg width="960" height="100" viewBox="0 0 960 100" fill="none" xmlns="http://www.w3.org/2000/svg">
<g clip-path="url(#clip0_2_3)">
<path d="M0 92L8.8 90.7C17.7 89.3 35.3 86.7 53.2 85C71 83.3 89 82.7 106.8 84.2C124.7 85.7 142.3 89.3 160 90.2C177.7 91 195.3 89 213.2 87C231 85 249 83 266.8 83C284.7 83 302.3 85 320 84.7C337.7 84.3 355.3 81.7 373.2 80.8C391 80 409 81 426.8 81.5C444.7 82 462.3 82 480 81.5C497.7 81 515.3 80 533.2 79.2C551 78.3 569 77.7 586.8 79.5C604.7 81.3 622.3 85.7 640 87.7C657.7 89.7 675.3 89.3 693.2 87.8C711 86.3 729 83.7 746.8 81.8C764.7 80 782.3 79 800 81.2C817.7 83.3 835.3 88.7 853.2 88.7C871 88.7 889 83.3 906.8 82C924.7 80.7 942.3 83.3 951.2 84.7L960 86V100H951.2C942.3 100 924.7 100 906.8 100C889 100 871 100 853.2 100C835.3 100 817.7 100 800 100C782.3 100 764.7 100 746.8 100C729 100 711 100 693.2 100C675.3 100 657.7 100 640 100C622.3 100 604.7 100 586.8 100C569 100 551 100 533.2 100C515.3 100 497.7 100 480 100C462.3 100 444.7 100 426.8 100C409 100 391 100 373.2 100C355.3 100 337.7 100 320 100C302.3 100 284.7 100 266.8 100C249 100 231 100 213.2 100C195.3 100 177.7 100 160 100C142.3 100 124.7 100 106.8 100C89 100 71 100 53.2 100C35.3 100 17.7 100 8.8 100H0V92Z" fill="#BCE784"/>
<path d="M0 68L8.8 69C17.7 70 35.3 72 53.2 70.7C71 69.3 89 64.7 106.8 64.5C124.7 64.3 142.3 68.7 160 71.7C177.7 74.7 195.3 76.3 213.2 73.7C231 71 249 64 266.8 63.8C284.7 63.7 302.3 70.3 320 70.2C337.7 70 355.3 63 373.2 61.3C391 59.7 409 63.3 426.8 65.3C444.7 67.3 462.3 67.7 480 68.3C497.7 69 515.3 70 533.2 66.8C551 63.7 569 56.3 586.8 55C604.7 53.7 622.3 58.3 640 61.2C657.7 64 675.3 65 693.2 66.2C711 67.3 729 68.7 746.8 68.5C764.7 68.3 782.3 66.7 800 66.2C817.7 65.7 835.3 66.3 853.2 65.5C871 64.7 889 62.3 906.8 61.7C924.7 61 942.3 62 951.2 62.5L960 63V88L951.2 86.7C942.3 85.3 924.7 82.7 906.8 84C889 85.3 871 90.7 853.2 90.7C835.3 90.7 817.7 85.3 800 83.2C782.3 81 764.7 82 746.8 83.8C729 85.7 711 88.3 693.2 89.8C675.3 91.3 657.7 91.7 640 89.7C622.3 87.7 604.7 83.3 586.8 81.5C569 79.7 551 80.3 533.2 81.2C515.3 82 497.7 83 480 83.5C462.3 84 444.7 84 426.8 83.5C409 83 391 82 373.2 82.8C355.3 83.7 337.7 86.3 320 86.7C302.3 87 284.7 85 266.8 85C249 85 231 87 213.2 89C195.3 91 177.7 93 160 92.2C142.3 91.3 124.7 87.7 106.8 86.2C89 84.7 71 85.3 53.2 87C35.3 88.7 17.7 91.3 8.8 92.7L0 94V68Z" fill="#40CBAE"/>
<path d="M0 57L8.8 57.3C17.7 57.7 35.3 58.3 53.2 55.8C71 53.3 89 47.7 106.8 47.2C124.7 46.7 142.3 51.3 160 54.7C177.7 58 195.3 60 213.2 58C231 56 249 50 266.8 50.2C284.7 50.3 302.3 56.7 320 57.8C337.7 59 355.3 55 373.2 52.8C391 50.7 409 50.3 426.8 51.2C444.7 52 462.3 54 480 55.3C497.7 56.7 515.3 57.3 533.2 55.3C551 53.3 569 48.7 586.8 48.2C604.7 47.7 622.3 51.3 640 52.8C657.7 54.3 675.3 53.7 693.2 54.7C711 55.7 729 58.3 746.8 59.2C764.7 60 782.3 59 800 57.3C817.7 55.7 835.3 53.3 853.2 52.3C871 51.3 889 51.7 906.8 50.5C924.7 49.3 942.3 46.7 951.2 45.3L960 44V65L951.2 64.5C942.3 64 924.7 63 906.8 63.7C889 64.3 871 66.7 853.2 67.5C835.3 68.3 817.7 67.7 800 68.2C782.3 68.7 764.7 70.3 746.8 70.5C729 70.7 711 69.3 693.2 68.2C675.3 67 657.7 66 640 63.2C622.3 60.3 604.7 55.7 586.8 57C569 58.3 551 65.7 533.2 68.8C515.3 72 497.7 71 480 70.3C462.3 69.7 444.7 69.3 426.8 67.3C409 65.3 391 61.7 373.2 63.3C355.3 65 337.7 72 320 72.2C302.3 72.3 284.7 65.7 266.8 65.8C249 66 231 73 213.2 75.7C195.3 78.3 177.7 76.7 160 73.7C142.3 70.7 124.7 66.3 106.8 66.5C89 66.7 71 71.3 53.2 72.7C35.3 74 17.7 72 8.8 71L0 70V57Z" fill="#00A3C0"/>
<path d="M0 20L8.8 21C17.7 22 35.3 24 53.2 23C71 22 89 18 106.8 15.3C124.7 12.7 142.3 11.3 160 15C177.7 18.7 195.3 27.3 213.2 27.2C231 27 249 18 266.8 18.8C284.7 19.7 302.3 30.3 320 35.2C337.7 40 355.3 39 373.2 35.7C391 32.3 409 26.7 426.8 25.5C444.7 24.3 462.3 27.7 480 31.2C497.7 34.7 515.3 38.3 533.2 37.8C551 37.3 569 32.7 586.8 28.8C604.7 25 622.3 22 640 19.3C657.7 16.7 675.3 14.3 693.2 18.3C711 22.3 729 32.7 746.8 32.3C764.7 32 782.3 21 800 20C817.7 19 835.3 28 853.2 29.8C871 31.7 889 26.3 906.8 23.5C924.7 20.7 942.3 20.3 951.2 20.2L960 20V46L951.2 47.3C942.3 48.7 924.7 51.3 906.8 52.5C889 53.7 871 53.3 853.2 54.3C835.3 55.3 817.7 57.7 800 59.3C782.3 61 764.7 62 746.8 61.2C729 60.3 711 57.7 693.2 56.7C675.3 55.7 657.7 56.3 640 54.8C622.3 53.3 604.7 49.7 586.8 50.2C569 50.7 551 55.3 533.2 57.3C515.3 59.3 497.7 58.7 480 57.3C462.3 56 444.7 54 426.8 53.2C409 52.3 391 52.7 373.2 54.8C355.3 57 337.7 61 320 59.8C302.3 58.7 284.7 52.3 266.8 52.2C249 52 231 58 213.2 60C195.3 62 177.7 60 160 56.7C142.3 53.3 124.7 48.7 106.8 49.2C89 49.7 71 55.3 53.2 57.8C35.3 60.3 17.7 59.7 8.8 59.3L0 59V20Z" fill="#0073C0"/>
<path d="M0 -0.999996H8.8C17.7 -0.999996 35.3 -0.999996 53.2 -0.999996C71 -0.999996 89 -0.999996 106.8 -0.999996C124.7 -0.999996 142.3 -0.999996 160 -0.999996C177.7 -0.999996 195.3 -0.999996 213.2 -0.999996C231 -0.999996 249 -0.999996 266.8 -0.999996C284.7 -0.999996 302.3 -0.999996 320 -0.999996C337.7 -0.999996 355.3 -0.999996 373.2 -0.999996C391 -0.999996 409 -0.999996 426.8 -0.999996C444.7 -0.999996 462.3 -0.999996 480 -0.999996C497.7 -0.999996 515.3 -0.999996 533.2 -0.999996C551 -0.999996 569 -0.999996 586.8 -0.999996C604.7 -0.999996 622.3 -0.999996 640 -0.999996C657.7 -0.999996 675.3 -0.999996 693.2 -0.999996C711 -0.999996 729 -0.999996 746.8 -0.999996C764.7 -0.999996 782.3 -0.999996 800 -0.999996C817.7 -0.999996 835.3 -0.999996 853.2 -0.999996C871 -0.999996 889 -0.999996 906.8 -0.999996C924.7 -0.999996 942.3 -0.999996 951.2 -0.999996H960V22L951.2 22.2C942.3 22.3 924.7 22.7 906.8 25.5C889 28.3 871 33.7 853.2 31.8C835.3 30 817.7 21 800 22C782.3 23 764.7 34 746.8 34.3C729 34.7 711 24.3 693.2 20.3C675.3 16.3 657.7 18.7 640 21.3C622.3 24 604.7 27 586.8 30.8C569 34.7 551 39.3 533.2 39.8C515.3 40.3 497.7 36.7 480 33.2C462.3 29.7 444.7 26.3 426.8 27.5C409 28.7 391 34.3 373.2 37.7C355.3 41 337.7 42 320 37.2C302.3 32.3 284.7 21.7 266.8 20.8C249 20 231 29 213.2 29.2C195.3 29.3 177.7 20.7 160 17C142.3 13.3 124.7 14.7 106.8 17.3C89 20 71 24 53.2 25C35.3 26 17.7 24 8.8 23L0 22V-0.999996Z" fill="#1C37A3"/>
</g>
<defs>
<clipPath id="clip0_2_3">
<rect width="960" height="100" fill="white" transform="matrix(1 0 0 -1 0 100)"/>
</clipPath>
</defs>
</svg>
